<svg xmlns="http://www.w3.org/2000/svg" width="32" height="32" viewBox="0 0 32 32" fill="none">
  <path d="M14.336 18.656C15.52 17.984 16.64 17.664 17.888 17.664C18.24 17.664 18.592 17.696 18.912 17.728C19.072 17.76 19.104 17.696 18.944 17.6C18.336 17.248 17.664 16.928 16.96 16.64C15.584 16.064 15.392 15.552 15.392 14.976C15.392 14.4 15.776 13.888 16.224 13.472C17.024 12.736 17.472 11.744 17.472 10.56C17.472 8.35199 16.096 6.46399 13.664 6.46399C11.232 6.46399 9.85599 8.35199 9.85599 10.56C9.85599 11.744 10.304 12.768 11.104 13.472C11.552 13.888 11.936 14.432 11.936 14.976C11.936 15.52 11.712 16.064 10.368 16.64C8.38399 17.472 6.49599 18.432 6.46399 20.224C6.46399 21.408 7.35999 22.464 8.47999 22.464H13.024C13.376 22.464 13.664 22.176 13.664 21.824V19.744C13.696 19.296 13.92 18.88 14.336 18.656Z" fill="#F1BB29"/>
  <path d="M24.7359 20.544C21.7279 21.472 19.3599 18.624 16.0639 19.968C15.8079 20.064 15.6799 20.288 15.6799 20.576V24C15.6799 24.448 16.0639 24.736 16.4799 24.608C19.7439 23.616 22.1119 26.464 25.1839 25.184C25.4079 25.088 25.5999 24.864 25.5999 24.576V21.152C25.5999 20.736 25.1519 20.416 24.7359 20.544ZM20.7359 23.744C20.0319 23.744 19.4559 23.168 19.4559 22.464C19.4559 21.76 20.0319 21.184 20.7359 21.184C21.4399 21.184 22.0159 21.76 22.0159 22.464C22.0159 23.168 21.4399 23.744 20.7359 23.744Z" fill="#F1BB29"/>
</svg>
