<svg width="135" height="36" viewBox="0 0 135 36" fill="none" xmlns="http://www.w3.org/2000/svg">
<path d="M134.854 7.78042C134.82 8.20838 134.674 8.70481 134.417 9.26972C133.767 9.20125 133.151 9.16701 132.569 9.16701H132.106C131.319 12.9844 130.925 15.3639 130.925 16.3054C130.925 16.8018 131.028 17.05 131.233 17.05C131.456 17.05 132.029 16.8361 132.954 16.4081L133.416 17.2555C131.892 18.5222 130.48 19.1556 129.179 19.1556C128.58 19.1556 128.084 18.9673 127.69 18.5907C127.313 18.2141 127.125 17.7177 127.125 17.1014C127.125 16.468 127.193 15.7576 127.33 14.9701C127.484 14.1827 127.69 13.2241 127.947 12.0943C128.203 10.9473 128.392 10.0229 128.512 9.32108C127.878 9.37243 127.407 9.42379 127.099 9.47514C127.065 9.26972 127.048 8.99583 127.048 8.65346C127.048 8.29397 127.074 8.00296 127.125 7.78042H128.743C128.88 6.85603 128.948 5.98299 128.948 5.1613L128.922 4.3653V4.28827C130.258 3.82607 131.516 3.59497 132.697 3.59497C132.766 3.93734 132.8 4.3653 132.8 4.87885C132.8 5.3924 132.654 6.35959 132.363 7.78042H134.854Z" fill="black"/>
<path d="M122.517 8.75605C121.832 8.75605 121.284 9.32952 120.874 10.4764C120.463 11.6063 120.257 12.8217 120.257 14.1227C120.257 16.1769 120.891 17.204 122.157 17.204C122.568 17.204 123.005 17.1098 123.467 16.9215C123.929 16.7161 124.297 16.5192 124.571 16.3309L124.956 16.0228L125.547 16.8188C125.41 17.0071 125.136 17.2553 124.725 17.5635C124.314 17.8716 123.929 18.1284 123.57 18.3338C123.21 18.5392 122.748 18.7275 122.183 18.8987C121.618 19.0699 121.062 19.1555 120.514 19.1555C119.179 19.1555 118.177 18.719 117.51 17.8459C116.842 16.9729 116.508 15.8003 116.508 14.3281C116.508 12.291 117.065 10.6391 118.177 9.37231C119.307 8.10555 120.754 7.47217 122.517 7.47217C123.664 7.47217 124.571 7.7375 125.239 8.26817C125.924 8.78172 126.266 9.42367 126.266 10.194C126.266 10.9472 126.026 11.5977 125.547 12.1455C125.119 12.1455 124.623 12.0513 124.058 11.863C123.493 11.6747 123.065 11.4436 122.774 11.1697L123.159 8.91011C123.005 8.8074 122.791 8.75605 122.517 8.75605Z" fill="black"/>
<path d="M106.252 14.4051C106.252 12.2653 106.894 10.5792 108.178 9.34663C109.479 8.09699 110.951 7.47217 112.595 7.47217C113.605 7.47217 114.435 7.72038 115.085 8.21682C115.736 8.71325 116.061 9.38087 116.061 10.2197C116.061 11.0414 115.847 11.7347 115.419 12.2996C115.008 12.8645 114.503 13.301 113.904 13.6091C112.689 14.2083 111.576 14.5849 110.566 14.7389L109.95 14.816C110.07 16.4251 110.729 17.2297 111.927 17.2297C112.338 17.2297 112.774 17.1269 113.237 16.9215C113.699 16.7161 114.058 16.5107 114.315 16.3053L114.7 15.9971L115.317 16.8188C115.18 17.0071 114.906 17.2553 114.495 17.5635C114.084 17.8716 113.699 18.1284 113.339 18.3338C112.346 18.8816 111.259 19.1555 110.078 19.1555C108.897 19.1555 107.964 18.7361 107.279 17.8973C106.595 17.0585 106.252 15.8944 106.252 14.4051ZM109.924 13.5578C110.797 13.4037 111.491 13.0356 112.004 12.4536C112.518 11.8716 112.774 11.1184 112.774 10.194C112.774 9.2696 112.501 8.8074 111.953 8.8074C111.302 8.8074 110.797 9.36375 110.438 10.4764C110.095 11.572 109.924 12.5991 109.924 13.5578Z" fill="black"/>
<path d="M94.0089 18.9244H93.521C93.521 18.1198 93.7607 16.5792 94.24 14.3024C94.7364 12.0257 94.9846 10.7332 94.9846 10.4251C94.9846 9.86019 94.745 9.26104 94.2656 8.62766L94.0345 8.31953L94.0602 7.98572C94.9846 7.72894 96.4654 7.60056 98.5025 7.60056C98.725 7.89157 98.8448 8.42224 98.8619 9.19257C100.351 8.04563 101.609 7.47217 102.637 7.47217C103.253 7.47217 103.741 7.68615 104.1 8.11411C104.477 8.54207 104.665 9.0813 104.665 9.7318C104.665 10.3652 104.468 11.4693 104.074 13.0442C103.681 14.6191 103.484 15.6804 103.484 16.2282C103.484 16.7589 103.552 17.0242 103.689 17.0242C103.792 17.0242 104.152 16.8616 104.768 16.5364L105.076 16.3823L105.538 17.281C105.384 17.418 105.179 17.5891 104.922 17.7946C104.665 18 104.186 18.2824 103.484 18.6419C102.799 18.9843 102.183 19.1555 101.635 19.1555C100.385 19.1555 99.7607 18.4451 99.7607 17.0242C99.7607 16.4251 99.949 15.321 100.326 13.7118C100.719 12.1027 100.916 11.067 100.916 10.6048C100.916 10.1426 100.771 9.91154 100.48 9.91154C99.9832 9.91154 99.3755 10.1255 98.6565 10.5535C98.6052 10.8445 98.434 11.6148 98.143 12.8645C97.5438 15.5521 97.2442 17.4522 97.2442 18.5649C96.6451 18.8046 95.5666 18.9244 94.0089 18.9244Z" fill="black"/>
<path d="M80.9694 18.9244H80.4816C80.4816 18.1198 80.7212 16.5792 81.2005 14.3024C81.697 12.0257 81.9452 10.7332 81.9452 10.4251C81.9452 9.86019 81.7055 9.26104 81.2262 8.62766L80.9951 8.31953L81.0208 7.98572C81.9452 7.72894 83.4259 7.60056 85.463 7.60056C85.6856 7.89157 85.8054 8.42224 85.8225 9.19257C87.3118 8.04563 88.57 7.47217 89.5971 7.47217C90.2134 7.47217 90.7013 7.68615 91.0607 8.11411C91.4373 8.54207 91.6256 9.0813 91.6256 9.7318C91.6256 10.3652 91.4288 11.4693 91.0351 13.0442C90.6413 14.6191 90.4445 15.6804 90.4445 16.2282C90.4445 16.7589 90.5129 17.0242 90.6499 17.0242C90.7526 17.0242 91.1121 16.8616 91.7284 16.5364L92.0365 16.3823L92.4987 17.281C92.3446 17.418 92.1392 17.5891 91.8824 17.7946C91.6256 18 91.1463 18.2824 90.4445 18.6419C89.7597 18.9843 89.1435 19.1555 88.5957 19.1555C87.346 19.1555 86.7212 18.4451 86.7212 17.0242C86.7212 16.4251 86.9095 15.321 87.2861 13.7118C87.6799 12.1027 87.8767 11.067 87.8767 10.6048C87.8767 10.1426 87.7312 9.91154 87.4402 9.91154C86.9438 9.91154 86.3361 10.1255 85.6171 10.5535C85.5657 10.8445 85.3945 11.6148 85.1035 12.8645C84.5044 15.5521 84.2048 17.4522 84.2048 18.5649C83.6057 18.8046 82.5272 18.9244 80.9694 18.9244Z" fill="black"/>
<path d="M73.7404 19.1555C72.5593 19.1555 71.6349 18.7447 70.9672 17.923C70.2996 17.0842 69.9658 15.9202 69.9658 14.4309C69.9658 12.5307 70.4708 10.8959 71.4808 9.52643C72.5079 8.15696 73.9202 7.47222 75.7176 7.47222L76.642 7.52358C76.933 7.36951 77.2583 7.29248 77.6177 7.29248C78.9701 7.29248 79.6463 8.5678 79.6463 11.1184C80.3481 11.0842 81.0585 10.9901 81.7775 10.836L82.1884 10.7333L82.3424 11.7347C81.7775 11.9744 81.0157 12.1883 80.0571 12.3766L79.5436 12.4794C79.2183 14.2768 78.5593 15.8431 77.5664 17.1784C76.5735 18.4965 75.2982 19.1555 73.7404 19.1555ZM75.127 16.9473C75.846 16.9473 76.4879 16.4851 77.0528 15.5607C77.6349 14.6363 78.0371 13.6605 78.2597 12.6334C76.428 12.6334 75.5122 11.9487 75.5122 10.5792C75.5122 10.0314 75.6235 9.51787 75.846 9.03856L75.9744 8.78178C75.9059 8.74755 75.8203 8.73043 75.7176 8.73043C75.6149 8.73043 75.5379 8.74755 75.4865 8.78178C75.0585 9.05568 74.6563 9.69762 74.2797 10.7076C73.9031 11.7176 73.7147 12.8731 73.7147 14.1741C73.7147 16.0229 74.1855 16.9473 75.127 16.9473Z" fill="black"/>
<path d="M65.8456 8.75605C65.1609 8.75605 64.6131 9.32952 64.2022 10.4764C63.7914 11.6063 63.586 12.8217 63.586 14.1227C63.586 16.1769 64.2193 17.204 65.4861 17.204C65.897 17.204 66.3335 17.1098 66.7957 16.9215C67.2579 16.7161 67.6259 16.5192 67.8998 16.3309L68.285 16.0228L68.8756 16.8188C68.7386 17.0071 68.4647 17.2553 68.0539 17.5635C67.643 17.8716 67.2579 18.1284 66.8984 18.3338C66.5389 18.5392 66.0767 18.7275 65.5118 18.8987C64.9469 19.0699 64.3905 19.1555 63.8427 19.1555C62.5075 19.1555 61.5061 18.719 60.8385 17.8459C60.1708 16.9729 59.837 15.8003 59.837 14.3281C59.837 12.291 60.3934 10.6391 61.5061 9.37231C62.6359 8.10555 64.0824 7.47217 65.8456 7.47217C66.9925 7.47217 67.8998 7.7375 68.5674 8.26817C69.2522 8.78172 69.5945 9.42367 69.5945 10.194C69.5945 10.9472 69.3549 11.5977 68.8756 12.1455C68.4476 12.1455 67.9512 12.0513 67.3862 11.863C66.8213 11.6747 66.3934 11.4436 66.1024 11.1697L66.4875 8.91011C66.3335 8.8074 66.1195 8.75605 65.8456 8.75605Z" fill="black"/>
<path d="M49.9558 19.1555C49.3738 19.1555 48.8859 18.9586 48.4922 18.5649C48.1155 18.1712 47.9272 17.6234 47.9272 16.9215C47.9272 16.2026 48.3466 13.9344 49.1854 10.117C50.0414 6.28245 50.4693 3.51783 50.4693 1.82311L50.3153 0.693296C51.6505 0.231099 52.9001 0 54.0642 0C54.2354 0.239658 54.321 0.659058 54.321 1.2582C54.321 2.62767 53.8845 5.28103 53.0114 9.21826C52.1555 13.1384 51.7275 15.4237 51.7275 16.0742C51.7275 16.7076 51.8046 17.0243 51.9586 17.0243L53.7561 16.3823L54.2183 17.281C53.6362 17.7432 52.9258 18.1712 52.087 18.5649C51.2653 18.9586 50.5549 19.1555 49.9558 19.1555Z" fill="black"/>
<path d="M43.2932 8.21682C43.3274 8.18258 43.4216 7.96004 43.5757 7.5492C44.3802 7.5492 45.4587 7.78886 46.811 8.26817C46.3831 9.689 46.0407 11.1783 45.7839 12.7361C45.5272 14.2767 45.3988 15.3809 45.3988 16.0485C45.3988 16.699 45.4672 17.0242 45.6042 17.0242C45.7069 17.0242 46.0835 16.8616 46.734 16.5364L47.0421 16.3823L47.5043 17.281C47.3503 17.418 47.1448 17.5891 46.8881 17.7946C46.6484 18 46.1862 18.2824 45.5015 18.6419C44.8167 18.9843 44.2005 19.1555 43.6527 19.1555C42.5913 19.1555 41.9751 18.6762 41.8039 17.7175C40.7083 18.6762 39.7155 19.1555 38.8253 19.1555C37.9523 19.1555 37.2076 18.8131 36.5913 18.1284C35.9922 17.4436 35.6926 16.3652 35.6926 14.893C35.6926 12.5991 36.1634 10.7931 37.1049 9.47502C38.0464 8.13979 39.1848 7.47217 40.52 7.47217C41.4786 7.47217 42.403 7.72038 43.2932 8.21682ZM40.366 16.9729C40.7768 16.9729 41.239 16.8103 41.7525 16.485C41.8724 14.0713 42.2747 11.6833 42.9594 9.32095C42.4458 9.09842 42.0093 8.98715 41.6498 8.98715C41.0336 8.98715 40.5029 9.59485 40.0578 10.8103C39.6299 12.0085 39.4159 13.3352 39.4159 14.7903C39.4159 16.2453 39.7326 16.9729 40.366 16.9729Z" fill="black"/>
<path d="M30.4046 23.3666C29.7712 23.7946 29.1635 24.1027 28.5815 24.291C27.9995 24.4964 27.4346 24.5991 26.8868 24.5991C26.339 24.5991 25.8939 24.4451 25.5515 24.1369C25.2092 23.8288 25.038 23.3837 25.038 22.8017C25.038 22.2368 25.406 21.6976 26.1421 21.184C26.8782 20.6705 27.6057 20.3195 28.3247 20.1312L29.4289 19.8745L29.814 17.8202C28.8211 18.5735 27.8625 18.9501 26.9381 18.9501C26.0308 18.9501 25.2862 18.5991 24.7042 17.8973C24.1393 17.1954 23.8568 16.0742 23.8568 14.5335C23.8568 12.5135 24.3104 10.8359 25.2177 9.5007C26.125 8.14834 27.3233 7.47217 28.8126 7.47217C29.6514 7.47217 30.4816 7.67759 31.3033 8.08843C32.1764 7.7803 33.1179 7.62623 34.1279 7.62623L34.6671 7.65191C34.7184 7.85733 34.7441 8.14834 34.7441 8.52495C34.7441 10.0314 34.2049 13.4123 33.1264 18.6676C32.9381 19.7461 32.5958 20.6876 32.0993 21.4921C31.6029 22.3138 31.038 22.9386 30.4046 23.3666ZM29.9681 8.98715C29.232 8.98715 28.65 9.58629 28.222 10.7846C27.794 11.9657 27.5801 13.2839 27.5801 14.7389C27.5801 16.1769 27.9053 16.8959 28.5558 16.8959C28.9838 16.8959 29.4888 16.7332 30.0708 16.408C30.5501 13.5321 30.8925 11.1612 31.0979 9.29528C30.6186 9.08986 30.242 8.98715 29.9681 8.98715ZM26.1935 22.7503C26.1935 23.0756 26.3818 23.2382 26.7584 23.2382C27.1521 23.2382 27.5801 23.0157 28.0423 22.5706C28.5045 22.1426 28.8725 21.612 29.1464 20.9786C28.5815 21.0471 27.9481 21.2525 27.2463 21.5949C26.5444 21.9543 26.1935 22.3395 26.1935 22.7503Z" fill="black"/>
<path d="M13.4468 14.4051C13.4468 12.2653 14.0887 10.5792 15.3726 9.34663C16.6736 8.09699 18.1458 7.47217 19.7891 7.47217C20.7991 7.47217 21.6294 7.72038 22.2799 8.21682C22.9304 8.71325 23.2556 9.38087 23.2556 10.2197C23.2556 11.0414 23.0416 11.7347 22.6137 12.2996C22.2028 12.8645 21.6978 13.301 21.0987 13.6091C19.8833 14.2083 18.7706 14.5849 17.7606 14.7389L17.1444 14.816C17.2642 16.4251 17.9232 17.2297 19.1215 17.2297C19.5324 17.2297 19.9689 17.1269 20.4311 16.9215C20.8933 16.7161 21.2528 16.5107 21.5095 16.3053L21.8947 15.9971L22.511 16.8188C22.374 17.0071 22.1001 17.2553 21.6893 17.5635C21.2784 17.8716 20.8933 18.1284 20.5338 18.3338C19.5409 18.8816 18.4539 19.1555 17.2727 19.1555C16.0916 19.1555 15.1586 18.7361 14.4739 17.8973C13.7891 17.0585 13.4468 15.8944 13.4468 14.4051ZM17.1187 13.5578C17.9917 13.4037 18.685 13.0356 19.1986 12.4536C19.7121 11.8716 19.9689 11.1184 19.9689 10.194C19.9689 9.2696 19.695 8.8074 19.1472 8.8074C18.4967 8.8074 17.9917 9.36375 17.6322 10.4764C17.2899 11.572 17.1187 12.5991 17.1187 13.5578Z" fill="black"/>
<path d="M15.612 20.2853C15.3552 20.833 14.9444 21.3295 14.3795 21.7746C13.8317 22.2368 13.2411 22.4679 12.6077 22.4679C11.9743 22.4679 11.3495 22.2881 10.7332 21.9286C10.1341 21.5863 9.64622 21.2353 9.26962 20.8758C8.89301 20.5164 8.35378 19.96 7.65193 19.2068C6.96719 18.4536 6.49643 17.9486 6.23966 17.6918C5.33238 18.6676 4.22825 19.1554 2.92725 19.1554C2.07133 19.1554 1.36947 18.9415 0.821683 18.5135C0.273894 18.0855 0 17.5206 0 16.8188C0 16.0998 0.291013 15.4921 0.873039 14.9957C1.47218 14.4821 2.26819 14.2253 3.26106 14.2253C3.82596 14.2253 4.39087 14.3195 4.95578 14.5078C5.12696 13.669 5.26391 12.4793 5.36662 10.9386C4.3224 10.7503 3.46648 10.3138 2.79886 9.62905C2.14836 8.9272 1.82311 7.96001 1.82311 6.72748C1.82311 6.24817 1.90014 5.64046 2.05421 4.90437C2.24251 4.87013 2.49073 4.85302 2.79886 4.85302C3.10699 4.85302 3.42368 4.97285 3.74893 5.2125C3.52639 5.62334 3.41512 6.17113 3.41512 6.85587C3.41512 8.24246 4.0913 9.09838 5.44365 9.42363C5.51213 7.55772 5.61484 6.24817 5.75178 5.49496C5.88873 4.72463 6.12839 3.9971 6.47076 3.31236C6.81312 2.61051 7.37803 1.98568 8.16548 1.43789C8.97004 0.890105 9.98859 0.616211 11.2211 0.616211C12.4536 0.616211 13.4037 0.984256 14.0713 1.72035C14.7561 2.43932 15.0984 3.29524 15.0984 4.28811C15.0984 5.6747 14.4565 7.07841 13.1726 8.49924C11.9058 9.90295 10.331 10.7589 8.44793 11.067C7.91726 13.378 7.5321 14.9443 7.29244 15.766C7.56633 15.9714 8.06277 16.3566 8.78174 16.9215C9.51783 17.4864 10.0742 17.9058 10.4508 18.1797C10.8445 18.4365 11.3666 18.6932 12.0171 18.95C12.6847 19.2239 13.3267 19.3609 13.9429 19.3609L15.0214 19.2838C15.3124 19.6947 15.5093 20.0285 15.612 20.2853ZM13.378 4.51921C13.378 4.00566 13.2411 3.58625 12.9672 3.261C12.7104 2.93575 12.3595 2.77313 11.9144 2.77313C10.7675 2.77313 9.92867 4.02277 9.398 6.52206C9.10699 7.89153 8.90157 8.8844 8.78174 9.50066C10.0485 9.27812 11.127 8.6533 12.0171 7.6262C12.9244 6.58197 13.378 5.54631 13.378 4.51921ZM2.69615 17.2296C3.29529 17.2296 3.82596 16.9044 4.28816 16.2539C3.79173 15.9457 3.29529 15.7917 2.79886 15.7917C2.06277 15.7917 1.69472 16.0313 1.69472 16.5106C1.69472 16.7503 1.79743 16.93 2.00285 17.0499C2.20827 17.1697 2.43937 17.2296 2.69615 17.2296Z" fill="black"/>
<path d="M121.082 31.7439H120.716C120.716 31.1405 120.896 29.985 121.255 28.2775C121.628 26.5699 121.814 25.6006 121.814 25.3695C121.814 24.9458 121.634 24.4964 121.275 24.0214L121.101 23.7903L121.121 23.5399C121.814 23.3474 122.924 23.2511 124.452 23.2511C124.632 23.495 124.722 23.893 124.722 24.4451C125.877 23.5849 126.795 23.1548 127.476 23.1548C128.336 23.1548 128.843 23.5977 128.997 24.4836C129.344 24.2011 129.793 23.9123 130.345 23.617C130.91 23.3089 131.411 23.1548 131.847 23.1548C132.297 23.1548 132.669 23.3024 132.964 23.5977C133.26 23.8802 133.407 24.2782 133.407 24.7917C133.407 25.3053 133.266 26.1526 132.984 27.3338C132.701 28.515 132.56 29.311 132.56 29.7218C132.56 30.1198 132.618 30.3188 132.733 30.3188C132.81 30.3188 133.074 30.1969 133.523 29.9529L133.735 29.8374L134.081 30.5114C133.748 30.8452 133.292 31.1662 132.714 31.4743C132.149 31.7696 131.648 31.9173 131.212 31.9173C130.249 31.9173 129.768 31.3716 129.768 30.2803C129.768 29.8823 129.902 29.0863 130.172 27.8923C130.454 26.6855 130.596 25.9023 130.596 25.5428C130.596 25.1705 130.487 24.9843 130.268 24.9843C129.896 24.9843 129.472 25.1255 128.997 25.408C128.972 25.6648 128.792 26.5378 128.458 28.0271C128.137 29.5164 127.977 30.6719 127.977 31.4936C127.604 31.6605 126.731 31.7439 125.357 31.7439C125.332 31.6027 125.319 31.2625 125.319 30.7233C125.319 30.184 125.467 29.2661 125.762 27.9693C126.07 26.6726 126.224 25.8509 126.224 25.5043C126.224 25.1576 126.102 24.9843 125.858 24.9843C125.473 24.9843 125.049 25.1384 124.587 25.4465C124.561 25.5621 124.433 26.127 124.202 27.1412C123.74 29.1698 123.509 30.6141 123.509 31.4743C123.059 31.6541 122.25 31.7439 121.082 31.7439Z" fill="#1D698D"/>
<path d="M112.793 28.3545C112.793 26.7496 113.275 25.485 114.238 24.5606C115.213 23.6234 116.317 23.1548 117.55 23.1548C118.307 23.1548 118.93 23.3409 119.418 23.7133C119.906 24.0856 120.15 24.5863 120.15 25.2154C120.15 25.8317 119.989 26.3516 119.668 26.7753C119.36 27.199 118.982 27.5264 118.532 27.7575C117.621 28.2069 116.786 28.4893 116.029 28.6049L115.566 28.6626C115.656 29.8695 116.151 30.4729 117.049 30.4729C117.357 30.4729 117.685 30.3959 118.031 30.2418C118.378 30.0877 118.648 29.9337 118.84 29.7796L119.129 29.5485L119.591 30.1648C119.489 30.306 119.283 30.4922 118.975 30.7233C118.667 30.9544 118.378 31.1469 118.108 31.301C117.364 31.7118 116.549 31.9173 115.663 31.9173C114.777 31.9173 114.077 31.6027 113.564 30.9736C113.05 30.3445 112.793 29.4715 112.793 28.3545ZM115.547 27.719C116.202 27.6034 116.722 27.3274 117.107 26.8909C117.492 26.4544 117.685 25.8894 117.685 25.1962C117.685 24.5029 117.479 24.1562 117.069 24.1562C116.581 24.1562 116.202 24.5735 115.932 25.408C115.676 26.2297 115.547 27 115.547 27.719Z" fill="#1D698D"/>
<path d="M113.218 23.3859C113.193 23.7069 113.084 24.0792 112.891 24.5029C112.403 24.4515 111.941 24.4259 111.504 24.4259H111.158C110.567 27.2889 110.272 29.0735 110.272 29.7796C110.272 30.152 110.349 30.3381 110.503 30.3381C110.67 30.3381 111.1 30.1776 111.793 29.8567L112.14 30.4922C110.997 31.4423 109.938 31.9173 108.962 31.9173C108.513 31.9173 108.141 31.7761 107.845 31.4936C107.563 31.2112 107.422 30.8388 107.422 30.3766C107.422 29.9016 107.473 29.3688 107.576 28.7782C107.691 28.1876 107.845 27.4687 108.038 26.6213C108.231 25.7611 108.372 25.0678 108.462 24.5414C107.987 24.5799 107.634 24.6184 107.402 24.657C107.377 24.5029 107.364 24.2975 107.364 24.0407C107.364 23.7711 107.383 23.5528 107.422 23.3859H108.635C108.738 22.6926 108.789 22.0378 108.789 21.4216L108.77 20.8246V20.7668C109.771 20.4201 110.715 20.2468 111.601 20.2468C111.652 20.5036 111.678 20.8246 111.678 21.2097C111.678 21.5949 111.569 22.3203 111.35 23.3859H113.218Z" fill="#1D698D"/>
<path d="M106.296 29.1633C106.296 29.9722 105.936 30.6334 105.217 31.1469C104.511 31.6605 103.702 31.9173 102.791 31.9173C101.879 31.9173 101.154 31.7247 100.614 31.3395C100.088 30.9544 99.8248 30.6141 99.8248 30.3188C99.8248 30.1391 100.05 29.8502 100.499 29.4522C100.948 29.0414 101.327 28.791 101.635 28.7011C102.277 29.1762 102.803 29.9273 103.214 30.9544C103.689 30.9158 103.927 30.6912 103.927 30.2803C103.927 29.6897 103.407 28.8552 102.367 27.7768C101.327 26.6855 100.807 25.8188 100.807 25.1769C100.807 24.535 101.096 24.0407 101.674 23.694C102.251 23.3345 102.945 23.1548 103.754 23.1548C104.575 23.1548 105.191 23.3024 105.602 23.5977C106.013 23.8802 106.219 24.2718 106.219 24.7725C106.219 25.2603 105.827 25.9408 105.044 26.8138C105.134 26.9037 105.249 27.0257 105.39 27.1797C105.532 27.321 105.718 27.597 105.949 28.0079C106.18 28.4187 106.296 28.8039 106.296 29.1633ZM104.447 26.1398C104.986 25.6776 105.256 25.2218 105.256 24.7725C105.256 24.3231 104.948 24.0984 104.331 24.0984C104.036 24.0984 103.792 24.1626 103.599 24.291C103.407 24.4066 103.311 24.5414 103.311 24.6954C103.311 24.9779 103.593 25.3759 104.158 25.8894L104.447 26.1398Z" fill="#1D698D"/>
<path d="M93.2187 31.7633C92.153 31.7633 91.6202 31.1727 91.6202 29.9916C91.6202 29.7091 91.7486 28.8938 92.0054 27.5458C92.2622 26.1977 92.3906 25.0743 92.3906 24.1756C92.3906 23.983 92.3649 23.8033 92.3135 23.6364C93.0068 23.3667 93.9569 23.2319 95.1637 23.2319C95.2279 23.4117 95.26 23.7198 95.26 24.1563C95.26 24.5928 95.1188 25.4659 94.8364 26.7754C94.5539 28.085 94.4127 28.9388 94.4127 29.3368C94.4127 29.7348 94.5154 29.9338 94.7208 29.9338C95.2857 29.9338 95.8314 29.7348 96.3578 29.3368C96.3963 28.8617 96.653 26.9295 97.1281 23.5401C97.5774 23.3603 98.3863 23.2705 99.5546 23.2705H99.9205C99.7665 23.8739 99.5097 25.4017 99.1502 27.8539C98.8036 30.2933 98.5532 31.8404 98.3991 32.4951C98.2451 33.1499 98.0332 33.7277 97.7636 34.2284C97.5068 34.7291 97.1859 35.1014 96.8007 35.3453C96.4284 35.6021 96.0496 35.7754 95.6645 35.8653C95.2793 35.9552 94.7786 36.0001 94.1623 36.0001C93.5589 36.0001 92.9812 35.8011 92.4291 35.4031C91.8899 35.018 91.6202 34.6841 91.6202 34.4017C91.6202 34.2219 91.8449 33.9459 92.2943 33.5736C92.7565 33.2013 93.1416 32.9702 93.4498 32.8803C94.1045 33.5351 94.586 34.2476 94.8941 35.018C95.2279 35.018 95.5232 34.62 95.78 33.8239C96.0368 33.0279 96.2101 31.8596 96.3 30.319C95.9919 30.6271 95.5232 30.9481 94.8941 31.2819C94.265 31.6028 93.7065 31.7633 93.2187 31.7633Z" fill="#1D698D"/>
<path d="M90.6484 29.1633C90.6484 29.9722 90.2889 30.6334 89.5699 31.1469C88.8638 31.6605 88.0549 31.9173 87.1434 31.9173C86.2318 31.9173 85.5064 31.7247 84.9672 31.3395C84.4408 30.9544 84.1776 30.6141 84.1776 30.3188C84.1776 30.1391 84.4023 29.8502 84.8516 29.4522C85.301 29.0414 85.6798 28.791 85.9879 28.7011C86.6298 29.1762 87.1562 29.9273 87.5671 30.9544C88.0421 30.9158 88.2796 30.6912 88.2796 30.2803C88.2796 29.6897 87.7596 28.8552 86.7197 27.7768C85.6798 26.6855 85.1598 25.8188 85.1598 25.1769C85.1598 24.535 85.4487 24.0407 86.0264 23.694C86.6041 23.3345 87.2974 23.1548 88.1063 23.1548C88.928 23.1548 89.5442 23.3024 89.9551 23.5977C90.3659 23.8802 90.5713 24.2718 90.5713 24.7725C90.5713 25.2603 90.1798 25.9408 89.3966 26.8138C89.4865 26.9037 89.602 27.0257 89.7432 27.1797C89.8845 27.321 90.0706 27.597 90.3017 28.0079C90.5328 28.4187 90.6484 28.8039 90.6484 29.1633ZM88.7996 26.1398C89.3388 25.6776 89.6084 25.2218 89.6084 24.7725C89.6084 24.3231 89.3003 24.0984 88.684 24.0984C88.3887 24.0984 88.1448 24.1626 87.9522 24.291C87.7596 24.4066 87.6633 24.5414 87.6633 24.6954C87.6633 24.9779 87.9458 25.3759 88.5107 25.8894L88.7996 26.1398Z" fill="#1D698D"/>
<rect x="35.9744" y="26.8716" width="43.331" height="3.2097" fill="url(#paint0_linear_1_20)"/>
<defs>
<linearGradient id="paint0_linear_1_20" x1="79.3053" y1="26.8716" x2="48.8132" y2="28.4764" gradientUnits="userSpaceOnUse">
<stop/>
<stop offset="1" stop-opacity="0"/>
</linearGradient>
</defs>
</svg>
