<svg xmlns="http://www.w3.org/2000/svg" width="18" height="18" viewBox="0 0 18 18" fill="none">
  <path d="M9 9C9.89511 9 10.7536 8.64442 11.3865 8.01149C12.0194 7.37855 12.375 6.52011 12.375 5.625C12.375 4.72989 12.0194 3.87145 11.3865 3.23851C10.7536 2.60558 9.89511 2.25 9 2.25C8.10489 2.25 7.24645 2.60558 6.61351 3.23851C5.98058 3.87145 5.625 4.72989 5.625 5.625C5.625 6.52011 5.98058 7.37855 6.61351 8.01149C7.24645 8.64442 8.10489 9 9 9ZM9 10.125C7.80653 10.125 6.66193 9.65089 5.81802 8.80698C4.97411 7.96307 4.5 6.81847 4.5 5.625C4.5 4.43153 4.97411 3.28693 5.81802 2.44302C6.66193 1.59911 7.80653 1.125 9 1.125C10.1935 1.125 11.3381 1.59911 12.182 2.44302C13.0259 3.28693 13.5 4.43153 13.5 5.625C13.5 6.81847 13.0259 7.96307 12.182 8.80698C11.3381 9.65089 10.1935 10.125 9 10.125Z" fill="white"/>
  <path d="M9 9C9.14918 9 9.29226 9.05926 9.39775 9.16475C9.50324 9.27024 9.5625 9.41332 9.5625 9.5625V14.0625C9.5625 14.2117 9.50324 14.3548 9.39775 14.4602C9.29226 14.5657 9.14918 14.625 9 14.625C8.85082 14.625 8.70774 14.5657 8.60225 14.4602C8.49676 14.3548 8.4375 14.2117 8.4375 14.0625V9.5625C8.4375 9.41332 8.49676 9.27024 8.60225 9.16475C8.70774 9.05926 8.85082 9 9 9Z" fill="white"/>
  <path d="M6.75 11.4097V12.5515C4.74187 12.8733 3.375 13.5685 3.375 14.0624C3.375 14.725 5.83425 15.7499 9 15.7499C12.1657 15.7499 14.625 14.725 14.625 14.0624C14.625 13.5674 13.2581 12.8733 11.25 12.5515V11.4097C13.8713 11.7955 15.75 12.8384 15.75 14.0624C15.75 15.6149 12.7282 16.8749 9 16.8749C5.27175 16.8749 2.25 15.6149 2.25 14.0624C2.25 12.8373 4.12875 11.7955 6.75 11.4097Z" fill="white"/>
</svg>
