<svg xmlns="http://www.w3.org/2000/svg" width="13" height="16" viewBox="0 0 13 16" fill="none">
  <path fill-rule="evenodd" clip-rule="evenodd" d="M12.3599 12.6451C12.3599 15.117 8.86055 15.4028 6.22907 15.4028L6.04075 15.4026C4.36419 15.3987 0.0966797 15.2962 0.0966797 12.63C0.0966797 10.2085 3.4554 9.88487 6.06686 9.87267L6.41737 9.87246C8.09382 9.8764 12.3599 9.97894 12.3599 12.6451ZM6.22907 10.9973C2.93023 10.9973 1.25797 11.5463 1.25797 12.63C1.25797 13.7235 2.93023 14.2778 6.22907 14.2778C9.52713 14.2778 11.1986 13.7288 11.1986 12.6451C11.1986 11.5515 9.52713 10.9973 6.22907 10.9973ZM6.22907 0.5C8.4959 0.5 10.3393 2.2865 10.3393 4.4825C10.3393 6.6785 8.4959 8.46425 6.22907 8.46425H6.20429C3.9421 8.4575 2.10958 6.67025 2.1173 4.48025C2.1173 2.2865 3.96145 0.5 6.22907 0.5ZM6.22907 1.571C4.57152 1.571 3.22286 2.87675 3.22286 4.4825C3.21745 6.083 4.55603 7.388 6.20661 7.394L6.22907 7.9295V7.394C7.88584 7.394 9.23371 6.0875 9.23371 4.4825C9.23371 2.87675 7.88584 1.571 6.22907 1.571Z" fill="white"/>
</svg>
