<svg width="67" height="38" viewBox="0 0 67 38" fill="none" xmlns="http://www.w3.org/2000/svg">
<path id="Vector 1" d="M43.7889 6.51066L43.2891 6.50028L43.7889 6.51066ZM27.4573 31.4138L26.9741 31.5423L27.4573 31.4138ZM66.4991 13.3611C66.4821 13.0855 66.2449 12.8758 65.9693 12.8927L61.4778 13.1689C61.2022 13.1859 60.9925 13.423 61.0094 13.6987C61.0264 13.9743 61.2635 14.184 61.5392 14.167L65.5316 13.9215L65.7771 17.914C65.7941 18.1896 66.0312 18.3993 66.3069 18.3824C66.5825 18.3654 66.7922 18.1282 66.7752 17.8526L66.4991 13.3611ZM0.830163 31.8841C1.95329 32.2897 3.46996 32.3668 5.21859 32.2044C6.97846 32.041 9.02203 31.63 11.2276 31.0181C15.6395 29.7941 20.741 27.7548 25.5896 25.2301C30.4361 22.7065 35.0527 19.6861 38.4821 16.4906C41.8912 13.314 44.2191 9.8785 44.2888 6.52104L43.2891 6.50028C43.2281 9.43415 41.1629 12.6258 37.8004 15.759C34.4582 18.8732 29.925 21.8452 25.1277 24.3431C20.3325 26.84 15.2961 28.8516 10.9603 30.0545C8.79212 30.656 6.80943 31.0524 5.12612 31.2087C3.43157 31.366 2.08817 31.2752 1.16984 30.9435L0.830163 31.8841ZM44.2888 6.52104C44.3305 4.51321 44.0222 3.00674 43.3909 1.99409C42.7373 0.945563 41.7597 0.465652 40.624 0.501917C39.527 0.536948 38.3168 1.04957 37.1041 1.88224C35.8831 2.72053 34.6176 3.91181 33.4016 5.37145C28.5552 11.1891 24.3073 21.5099 26.9741 31.5423L27.9405 31.2854C25.3812 21.6574 29.4624 11.6624 34.17 6.01151C35.3425 4.60401 36.5421 3.4811 37.6701 2.70663C38.8063 1.92654 39.8289 1.52781 40.656 1.50141C41.4443 1.47623 42.0821 1.78478 42.5423 2.5231C43.0249 3.29729 43.329 4.57604 43.2891 6.50028L44.2888 6.52104ZM26.9741 31.5423C27.5144 33.5748 28.3772 35.0652 29.534 36.0509C30.6962 37.0413 32.1106 37.4841 33.6768 37.4996C36.7716 37.5301 40.5225 35.8935 44.3998 33.4334C52.1831 28.4949 60.8101 20.0167 66.3746 13.723L65.6254 13.0606C60.0844 19.3277 51.5304 27.7247 43.864 32.589C40.0164 35.0303 36.4753 36.5271 33.6866 36.4996C32.311 36.4861 31.1358 36.102 30.1826 35.2898C29.2239 34.4729 28.4454 33.1849 27.9405 31.2854L26.9741 31.5423Z" fill="#F1BB29"/>
</svg>
